o TallBox
v 0.720444 1.200000 0.473883
v 0.720444 -0.000000 0.473882
v 0.523986 1.200000 -0.090649
v 0.523986 0.000000 -0.090650
v 0.146892 1.200000 0.673480
v 0.146892 -0.000000 0.673479
v -0.049566 1.200000 0.108948
v -0.049566 0.000000 0.108947
vn 0.9444 -0.0000 -0.3287
vn -0.3287 -0.0000 -0.9444
vn -0.9444 -0.0000 0.3287
vn 0.3287 -0.0000 0.9444
vn -0.0000 1.0000 -0.0000
vn -0.0000 -1.0000 -0.0000
s 0
f 1//1 2//1 4//1 3//1
f 3//2 4//2 8//2 7//2
f 7//3 8//3 6//3 5//3
f 5//4 6//4 2//4 1//4
f 3//5 7//5 5//5 1//5
f 8//6 4//6 2//6 6//6